HIERARCHY
ROOT Hips
{
	OFFSET -3.958830 18.904000 13.208200
	CHANNELS 6 Xposition Yposition Zposition Zrotation Yrotation Xrotation 
	JOINT LHipJoint
	{
		OFFSET 0.000000 0.000000 0.000000
		CHANNELS 3 Zrotation Yrotation Xrotation
		JOINT LeftUpLeg
		{
			OFFSET 1.800000 -1.400000 0.085000
			CHANNELS 3 Zrotation Yrotation Xrotation
			JOINT LeftLeg
			{
				OFFSET 2.215000 -6.000000 0.000000
				CHANNELS 3 Zrotation Yrotation Xrotation
				JOINT LeftFoot
				{
					OFFSET 2.500000 -6.900000 0.000000
					CHANNELS 3 Zrotation Yrotation Xrotation
					JOINT LeftToeBase
					{
						OFFSET 0.200000 -0.500000 1.950000
						CHANNELS 3 Zrotation Yrotation Xrotation
						End Site
						{
							OFFSET 0.000000 0.000000 0.000000
						}
					}
				}
			}
		}
	}
	JOINT RHipJoint
	{
		OFFSET 0.000000 0.000000 0.000000
		CHANNELS 3 Zrotation Yrotation Xrotation
		JOINT RightUpLeg
		{
			OFFSET -1.800000 -1.400000 0.085000
			CHANNELS 3 Zrotation Yrotation Xrotation
			JOINT RightLeg
			{
				OFFSET -2.215000 -6.000000 0.000000
				CHANNELS 3 Zrotation Yrotation Xrotation
				JOINT RightFoot
				{
					OFFSET -2.500000 -6.900000 0.000000
					CHANNELS 3 Zrotation Yrotation Xrotation
					JOINT RightToeBase
					{
						OFFSET -0.200000 -0.500000 1.950000
						CHANNELS 3 Zrotation Yrotation Xrotation
						End Site
						{
							OFFSET 0.000000 0.000000 0.000000
						}
					}
				}
			}
		}
	}
	JOINT LowerBack
	{
		OFFSET 0.000000 0.000000 0.000000
		CHANNELS 3 Zrotation Yrotation Xrotation
		JOINT Spine
		{
			OFFSET -0.087000 1.940000 -0.288900
			CHANNELS 3 Zrotation Yrotation Xrotation
			JOINT Spine1
			{
				OFFSET 0.000000 1.950000 0.060000
				CHANNELS 3 Zrotation Yrotation Xrotation
				JOINT Neck
				{
					OFFSET 0.000000 0.000000 0.000000
					CHANNELS 3 Zrotation Yrotation Xrotation
					JOINT Neck1
					{
						OFFSET 0.000000 1.600000 0.340000
						CHANNELS 3 Zrotation Yrotation Xrotation
						JOINT Head
						{
							OFFSET 0.000000 1.667000 -0.240000
							CHANNELS 3 Zrotation Yrotation Xrotation
							End Site
							{
								OFFSET 0.000000 0.000000 0.000000
							}
						}
					}
				}
				JOINT LeftShoulder
				{
					OFFSET 0.000000 0.000000 0.000000
					CHANNELS 3 Zrotation Yrotation Xrotation
					JOINT LeftArm
					{
						OFFSET 2.700000 1.550000 -0.730000
						CHANNELS 3 Zrotation Yrotation Xrotation
						JOINT LeftForeArm
						{
							OFFSET 5.450000 0.000000 0.000000
							CHANNELS 3 Zrotation Yrotation Xrotation
							JOINT LeftHand
							{
								OFFSET 3.450000 0.000000 0.000000
								CHANNELS 3 Zrotation Yrotation Xrotation
								JOINT LeftHandIndex1
								{
									OFFSET 0.750000 0.000000 0.000000
									CHANNELS 3 Zrotation Yrotation Xrotation
									End Site
									{
										OFFSET 0.000000 0.000000 0.000000
									}
								}
							}
						}
					}
				}
				JOINT RightShoulder
				{
					OFFSET 0.000000 0.000000 0.000000
					CHANNELS 3 Zrotation Yrotation Xrotation
					JOINT RightArm
					{
						OFFSET -2.700000 1.550000 -0.730000
						CHANNELS 3 Zrotation Yrotation Xrotation
						JOINT RightForeArm
						{
							OFFSET -5.450000 0.000000 0.000000
							CHANNELS 3 Zrotation Yrotation Xrotation
							JOINT RightHand
							{
								OFFSET -3.450000 0.000000 0.000000
								CHANNELS 3 Zrotation Yrotation Xrotation
								JOINT RightHandIndex1
								{
									OFFSET -0.750000 0.000000 0.000000
									CHANNELS 3 Zrotation Yrotation Xrotation
									End Site
									{
										OFFSET 0.000000 0.000000 0.000000
									}
								}
							}
						}
					}
				}
			}
		}
	}
}
MOTION
Frames: 10
Frame Time: 0.016667
3.470850 16.714590 0.029070 -4.537033 -25.262151 18.067294 -14.694305 12.812413 1.991403 19.713686 -2.753774 -8.525406 4.295829 3.363277 7.419927 0.448288 3.635679 3.631731 -0.510600 -0.885110 -0.215110 18.739048 -9.257318 5.677554 -19.603408 8.576216 -46.774597 33.365287 -13.194957 22.108255 -0.206725 -6.212053 2.307061 -0.692760 0.395980 0.092600 -4.606875 -0.769369 -8.746797 20.884677 -4.010287 6.255064 -14.472216 -0.701343 -25.650463 0.233547 3.357628 -9.373378 5.136686 -12.369368 22.428349 -8.775680 -7.604460 27.553390 10.960090 22.256845 -0.851138 -28.623787 42.851968 -8.529802 36.139641 -18.337675 2.184573 -4.601505 2.965613 -0.187570 0.337060 -0.415180 0.054720 -17.648482 -14.129303 10.537544 36.885527 -20.985438 -11.230461 -19.984455 14.145520 -0.929554 3.177791 -1.696550 -0.073750 -0.326860 -0.008210 0.113930 
3.246550 16.742010 -0.019640 -4.094151 -30.284440 16.482477 -14.647176 13.289773 1.822955 18.579386 -2.403818 -8.960204 5.307669 3.641377 12.868303 0.454589 3.660739 3.612369 -0.468850 -0.820590 -0.244670 18.722234 -9.475628 5.563616 -15.580057 9.066527 -46.222046 30.012528 -13.606980 25.658483 -0.217769 -6.137627 2.369358 -0.669400 0.409650 0.012940 -4.587976 -1.233563 -8.567209 20.841417 -5.708100 8.289448 -15.570801 -2.616743 -26.261387 0.606326 0.059285 -8.944820 -0.372846 -7.570493 24.568275 -3.724910 -8.165430 26.536700 7.942574 23.812970 0.637223 -30.692853 46.328838 -9.883293 46.336654 -29.480494 -1.197979 -4.475497 3.002719 -0.132060 0.259940 -0.398880 0.106410 -14.311691 -15.567245 8.746630 33.942787 -22.968149 -11.123773 -20.262930 16.946336 -1.086582 3.173624 -1.667124 -0.095200 -0.263300 -0.046340 0.142920 
3.018730 16.767750 -0.072990 -2.817438 -34.447111 16.192220 -14.687107 13.618739 1.769691 16.131086 -2.540586 -12.280431 7.790405 3.232839 18.883996 0.462128 3.696030 3.599904 -0.487080 -0.822470 -0.306730 18.646080 -9.662918 5.501663 -11.607165 9.376383 -46.820350 24.656367 -13.090928 29.258867 -0.100513 -5.977555 2.461402 -0.657360 0.470860 -0.012880 -4.274138 -1.502839 -8.452833 16.820135 -5.289267 9.989878 -12.580488 -3.029972 -28.186425 0.980433 -1.683530 -8.636666 -2.701838 -7.003832 22.421915 -3.452860 -8.612290 27.458740 7.041234 26.388494 0.806302 -31.429459 42.431555 -9.831184 54.089433 -38.192907 -5.564884 -4.631721 3.110971 -0.202550 0.293810 -0.463260 0.144460 -12.829015 -18.464696 7.506816 30.832522 -28.694304 -11.102978 -21.088425 21.030890 -1.249559 3.190697 -1.803740 -0.107770 -0.261190 -0.061630 0.184340 
2.814670 16.786240 -0.117570 -2.896652 -39.738256 16.285145 -14.745048 13.814528 1.855398 14.892942 -2.833096 -14.714172 8.776304 3.268877 24.559415 0.508839 4.169081 3.404965 -0.471250 -0.800190 -0.319000 18.585237 -9.691075 5.331624 -6.540021 10.100210 -46.252259 19.133932 -11.881285 32.121258 -0.014444 -5.641964 2.577641 -0.636470 0.501370 0.008030 -4.068786 -1.937494 -8.310439 15.800765 -6.244095 10.985666 -12.031286 -4.085171 -29.441440 2.067445 -2.364510 -7.913065 -3.399986 -4.500056 20.671067 -2.518410 -6.151990 26.600890 7.547974 29.354951 0.383313 -30.479750 38.122646 -8.974370 58.247000 -43.055387 -8.518839 -4.861932 3.226493 -0.231450 0.319660 -0.491970 0.149920 -14.484348 -21.919735 6.359784 32.372147 -29.656290 -12.259657 -23.657075 26.372941 -1.864437 3.231446 -2.019284 -0.101320 -0.286350 -0.053990 0.187230 
2.645790 16.817050 -0.196310 -3.822028 -44.647613 16.524180 -14.859992 13.985454 2.114085 14.985421 -3.371120 -17.452208 8.373794 3.838978 30.250620 0.630045 4.906709 3.117906 -0.453850 -0.779700 -0.358990 18.475865 -9.546741 5.139995 -0.840691 10.642481 -44.526606 14.037621 -10.126570 33.209939 0.080335 -5.062352 2.803454 -0.634480 0.527860 0.010820 -3.820452 -2.759195 -8.234736 15.522130 -7.061885 12.802142 -9.908615 -4.547672 -30.119063 2.781301 -5.155723 -8.139441 -7.833930 -1.819185 19.748260 -0.773160 -5.414700 26.202600 6.352607 30.053338 0.460123 -33.174623 34.467112 -8.746122 63.674708 -44.975499 -12.157524 -4.628403 3.255142 -0.229560 0.305010 -0.502490 0.178250 -12.916996 -21.961974 5.803153 30.747778 -35.119163 -12.721857 -24.212138 31.163411 -2.183840 3.258750 -2.147627 -0.088960 -0.291750 -0.051430 0.210640 
2.491280 16.887550 -0.284220 -5.476191 -52.096487 17.272949 -14.925799 14.167507 2.274430 13.782282 -3.639311 -18.155795 8.486402 3.840744 33.743681 0.771128 5.245202 2.955566 -0.316350 -0.583070 -0.314820 18.410396 -9.440595 5.028273 5.286149 11.084061 -41.545330 9.060633 -7.759169 32.494791 0.106359 -4.184871 3.113050 -0.574650 0.447270 -0.005590 -3.816489 -3.470338 -8.077578 17.019439 -9.160809 14.550773 -10.816300 -6.130858 -31.587088 3.701641 -7.811617 -8.290322 -12.971914 3.685527 20.344544 4.093900 -3.572430 23.414090 5.080123 31.348257 0.087255 -35.020992 31.962717 -7.963543 69.808528 -42.678426 -13.418822 -4.273475 3.234272 -0.156550 0.181360 -0.382480 0.237700 -12.162256 -22.132220 5.196152 32.538229 -35.064086 -13.957951 -25.262161 38.803510 -3.082173 3.275579 -2.279762 -0.023600 -0.292550 -0.144810 0.244780 
2.327810 16.964270 -0.382070 -6.732778 -59.734160 19.125490 -15.064430 14.266271 2.561959 11.911477 -4.188001 -20.456667 8.745009 3.554949 36.241743 0.863177 5.413301 2.888860 -0.261870 -0.473300 -0.338650 18.273250 -9.302789 4.932950 9.727266 10.773832 -38.616873 5.514009 -5.617764 29.449123 0.201607 -3.274936 3.483478 -0.539590 0.443610 -0.058930 -3.672553 -4.195629 -8.019304 15.915158 -9.757927 15.222421 -8.977146 -6.830041 -33.833129 4.672519 -10.310995 -9.328198 -18.374474 8.337729 19.963189 7.829120 -1.983370 22.908330 4.911900 31.187156 -0.068109 -38.565503 27.005127 -5.584877 72.948304 -29.694830 -6.934955 -3.939093 3.267977 -0.112880 0.113590 -0.330590 0.295490 -11.750113 -21.201184 4.672041 33.087351 -33.782272 -13.740934 -25.525190 38.989589 -2.737699 3.316669 -2.240059 -0.015940 -0.242740 -0.196310 0.283460 
2.198630 17.022340 -0.498090 -8.562332 -70.805459 22.415870 -15.273633 14.007403 2.993617 10.320718 -5.065770 -23.897384 6.794618 4.693028 40.796036 0.997556 6.105515 2.647507 -0.201200 -0.374180 -0.328230 18.101784 -9.244655 4.761328 12.504827 10.113124 -35.826517 3.757510 -4.064239 25.349449 0.292190 -2.554136 3.754018 -0.481660 0.450490 -0.104210 -3.626209 -4.369775 -8.075597 12.611224 -8.534516 15.049510 -6.292913 -6.519761 -34.864790 4.817432 -11.069891 -9.858982 -20.472665 12.621387 17.920371 11.337090 -0.227500 21.981280 5.439147 30.428601 0.761066 -41.468353 21.908405 -4.334070 74.213129 -29.446554 -8.304728 -3.781992 3.322189 -0.100980 0.072730 -0.319270 0.332700 -10.646725 -21.553811 3.102558 35.481026 -29.237541 -12.980692 -29.189963 38.794379 -2.927587 3.344838 -2.201713 -0.025780 -0.211270 -0.244920 0.303500 
2.103330 17.089750 -0.573810 -15.189354 -80.031784 28.862618 -15.521426 13.947998 3.389983 9.719845 -5.805856 -26.274362 4.871672 5.609054 42.254583 1.020993 6.403085 2.529076 -0.195980 -0.359640 -0.305390 17.828099 -9.361589 4.411264 12.260545 8.429247 -31.686459 6.668586 -4.411987 21.390347 0.277669 -2.305095 3.854161 -0.478620 0.437570 -0.124720 -3.604122 -4.980213 -8.064717 10.905575 -8.441647 15.773465 -4.678183 -6.621445 -35.631212 5.691188 -11.471949 -10.538211 -22.825305 15.923186 18.025113 12.145080 3.349120 20.697810 4.845009 30.169516 0.935574 -42.270235 17.334923 -2.818773 73.531506 -36.180600 -14.230573 -3.659988 3.204658 -0.038640 0.037920 -0.280040 0.315320 -9.887437 -22.434993 2.831003 38.164365 -26.091977 -12.849228 -24.210051 50.119766 -2.184974 3.064314 -2.314785 -0.044800 -0.159480 -0.225070 0.276280 
2.031470 17.167720 -0.618290 -67.289359 -87.388008 79.611313 -15.248091 14.036075 3.335471 7.291371 -5.606755 -25.410109 5.594988 4.413730 37.839877 0.826677 5.340751 2.859284 -0.058780 -0.154670 -0.251800 18.012043 -9.835983 4.230418 10.938348 6.694170 -28.074114 9.078499 -4.831289 19.040300 0.154296 -2.326659 3.840432 -0.369870 0.382400 -0.145940 -3.313471 -5.491767 -7.872896 9.542694 -8.054496 17.389562 -2.472529 -6.381307 -36.917376 5.179531 -12.179783 -11.062547 -27.511987 20.017985 17.886771 14.838460 5.875180 16.424000 3.347350 30.321472 1.122145 -41.963672 13.230326 -0.800206 70.149017 -46.944147 -21.025066 -3.402905 3.048785 0.036970 -0.051130 -0.177670 0.355870 -5.884404 -23.884783 3.040271 34.216071 -25.948720 -9.550402 -16.553159 67.930746 -1.107031 2.732813 -2.671774 -0.017640 -0.083260 -0.275030 0.287020 
